<svg width="1877" height="611" viewBox="0 0 1877 611" fill="none" xmlns="http://www.w3.org/2000/svg">
<g clip-path="url(#clip0_2304_73)">
<rect width="1877" height="611" fill="white"/>
<rect width="1870.18" height="610.878" fill="url(#paint0_linear_2304_73)"/>
<g filter="url(#filter0_f_2304_73)">
<ellipse cx="1639.16" cy="285.305" rx="150.004" ry="155.371" fill="#7DFFE8"/>
</g>
<g filter="url(#filter1_f_2304_73)">
<ellipse cx="738.025" cy="547.465" rx="150.004" ry="155.371" fill="#7CFF99"/>
</g>
<g filter="url(#filter2_f_2304_73)">
<ellipse cx="1158.07" cy="557.532" rx="218.789" ry="226.616" fill="#EDFFBB"/>
</g>
<ellipse cx="942.738" cy="516.525" rx="324.215" ry="335.814" fill="#F4F6FB"/>
<g filter="url(#filter3_f_2304_73)">
<ellipse cx="947.157" cy="432.643" rx="102.582" ry="106.253" fill="#CFDDEC"/>
</g>
<path d="M931.338 664.174L881.269 682.803M931.338 664.174L931.338 253.227M931.338 664.174L988.807 672.839M931.338 664.174L1144.67 590.823M1144.67 302.528L1094.02 290.823M1144.67 302.528L1144.67 379.186M1144.67 302.528L753.594 425.482M931.338 253.227L874.448 268.663M931.338 253.227L988.807 266.508M831.201 701.432L763.282 726.703L760.817 650.045M831.201 701.432L817.559 284.099M831.201 701.432L881.269 682.803M817.559 284.099L749.64 302.528L751.617 364.005M817.559 284.099L874.448 268.663M874.448 268.663L881.269 682.803M988.807 266.508L988.807 672.839M988.807 266.508L1043.37 279.118M988.807 672.839L1043.37 681.067M1043.37 681.067L1043.37 279.118M1043.37 681.067L1094.02 688.704M1043.37 681.067L1144.67 643.582M1043.37 279.118L1094.02 290.823M1043.37 279.118L751.617 364.005M1094.02 290.823L1094.02 688.704M1094.02 688.704L1144.67 696.34L1144.67 643.582M760.817 650.045L1144.67 519.275M760.817 650.045L758.748 585.712M1144.67 519.275L1144.67 447.427M1144.67 519.275L1144.67 590.823M758.748 585.712L1144.67 447.427M758.748 585.712L756.215 506.95M1144.67 447.427L1144.67 379.186M756.215 506.95L1144.67 379.186M756.215 506.95L753.594 425.482M753.594 425.482L751.617 364.005M1144.67 590.823L1144.67 643.582" stroke="url(#paint1_linear_2304_73)" stroke-width="2"/>
<path d="M1698.55 351.819C1700.52 350.64 1703.03 352.138 1703.03 354.498L1703.03 380.751C1703.03 383.08 1700.58 384.505 1698.61 383.325L1676.66 370.199C1674.68 369.018 1674.65 366.111 1676.6 364.946L1698.55 351.819Z" fill="#FDD6D0"/>
<path d="M144.779 348.598L178.618 328.361L225.833 413.066L191.994 433.302L144.779 348.598Z" fill="#D7E1EB"/>
</g>
<defs>
<filter id="filter0_f_2304_73" x="1163.16" y="-196.066" width="952.008" height="962.742" filterUnits="userSpaceOnUse" color-interpolation-filters="sRGB">
<feFlood flood-opacity="0" result="BackgroundImageFix"/>
<feBlend mode="normal" in="SourceGraphic" in2="BackgroundImageFix" result="shape"/>
<feGaussianBlur stdDeviation="163" result="effect1_foregroundBlur_2304_73"/>
</filter>
<filter id="filter1_f_2304_73" x="262.021" y="66.0938" width="952.008" height="962.742" filterUnits="userSpaceOnUse" color-interpolation-filters="sRGB">
<feFlood flood-opacity="0" result="BackgroundImageFix"/>
<feBlend mode="normal" in="SourceGraphic" in2="BackgroundImageFix" result="shape"/>
<feGaussianBlur stdDeviation="163" result="effect1_foregroundBlur_2304_73"/>
</filter>
<filter id="filter2_f_2304_73" x="613.28" y="4.91602" width="1089.58" height="1105.23" filterUnits="userSpaceOnUse" color-interpolation-filters="sRGB">
<feFlood flood-opacity="0" result="BackgroundImageFix"/>
<feBlend mode="normal" in="SourceGraphic" in2="BackgroundImageFix" result="shape"/>
<feGaussianBlur stdDeviation="163" result="effect1_foregroundBlur_2304_73"/>
</filter>
<filter id="filter3_f_2304_73" x="644.574" y="126.391" width="605.165" height="612.506" filterUnits="userSpaceOnUse" color-interpolation-filters="sRGB">
<feFlood flood-opacity="0" result="BackgroundImageFix"/>
<feBlend mode="normal" in="SourceGraphic" in2="BackgroundImageFix" result="shape"/>
<feGaussianBlur stdDeviation="100" result="effect1_foregroundBlur_2304_73"/>
</filter>
<linearGradient id="paint0_linear_2304_73" x1="175.33" y1="69.9098" x2="984.401" y2="1031.98" gradientUnits="userSpaceOnUse">
<stop stop-color="#CFD4FF"/>
<stop offset="1" stop-color="#FFFFFD"/>
</linearGradient>
<linearGradient id="paint1_linear_2304_73" x1="1125.33" y1="330.12" x2="977.352" y2="513.346" gradientUnits="userSpaceOnUse">
<stop/>
<stop offset="1" stop-color="#B0C2D5" stop-opacity="0"/>
</linearGradient>
<clipPath id="clip0_2304_73">
<rect width="1877" height="611" fill="white"/>
</clipPath>
</defs>
</svg>
